{"title":"Haley Cummings - Barely Legal.mp4","uid":8953393,"size":1283621583,"categoryP":"porn","categoryS":"movie_clips","magnet":"?xt=urn:btih:11f253b353d43b8493361caf1dea0e057dec77ab&amp;dn=Haley+Cummings+-+Barely+Legal.mp4&amp;tr=udp%3A%2F%2Ftracker.openbittorrent.com%3A80&amp;tr=udp%3A%2F%2Fopen.demonii.com%3A1337&amp;tr=udp%3A%2F%2Ftracker.coppersurfer.tk%3A6969&amp;tr=udp%3A%2F%2Fexodus.desync.com%3A6969","seeders":0,"leechers":1,"uploader":null,"files":1,"time":1379945053,"description":"\n\n\nHoly Shit we have found a jewel, Haley Cummings is flawless, 18 years old and ready to take dick any way she can get it. She has huge natural tits, a round firm ass, and a tight plum pussy. Mike could barely contain himself, he came three times during all this madness. This girls pussy is lethal and boy was Mike not lying. Mike fucks the youth out of this girl and tries to rip the lining out of her pussy. He tries to fill up her ass but it just won't fit or budge, but they both manage to make it work with a wonderful results left on her stomach. Enjoy!\n\n\nFormat : MPEG-4\nFormat profile : Base Media\nCodec ID : isom\nFile size : 1.20 GiB\nDuration : 55mn 16s\nOverall bit rate mode : Variable\nOverall bit rate : 3 096 Kbps\nWriting application : Lavf52.31.0\n\nVideo\nID : 1\nFormat : AVC\nFormat/Info : Advanced Video Codec\nFormat profile : &lt;a class=&quot;__cf_email__&quot; href=&quot;/cdn-cgi/l/email-protection&quot; data-cfemail=&quot;337b5a545b737f001d02&quot;&gt;[email&amp;#160;protected]&lt;/a&gt;&lt;script cf-hash='f9e31' type=&quot;text/javascript&quot;&gt;\n/* &lt;![CDATA[ */!function(){try{var t=&quot;currentScript&quot;in document?document.currentScript:function(){for(var t=document.getElementsByTagName(&quot;script&quot;),e=t.length;e--;)if(t[e].getAttribute(&quot;cf-hash&quot;))return t[e]}();if(t&amp;&amp;t.previousSibling){var e,r,n,i,c=t.previousSibling,a=c.getAttribute(&quot;data-cfemail&quot;);if(a){for(e=&quot;&quot;,r=parseInt(a.substr(0,2),16),n=2;a.length-n;n+=2)i=parseInt(a.substr(n,2),16)^r,e+=String.fromCharCode(i);e=document.createTextNode(e),c.parentNode.replaceChild(e,c)}}}catch(u){}}();/* ]]&gt; */&lt;/script&gt;\nFormat settings, CABAC : Yes\nFormat settings, ReFrames : 5 frames\nCodec ID : avc1\nCodec ID/Info : Advanced Video Coding\nDuration : 55mn 16s\nBit rate : 2 995 Kbps\nWidth : 1 280 pixels\nHeight : 720 pixels\nDisplay aspect ratio : 16:9\nFrame rate mode : Constant\nFrame rate : 29.000 fps\nColor space : YUV\nChroma subsampling : 4:2:0\nBit depth : 8 bits\nScan type : Progressive\nBits/(Pixel*Frame) : 0.112\nStream size : 1.16 GiB (97%)\nLanguage : English\n\nAudio\nID : 2\nFormat : AAC\nFormat/Info : Advanced Audio Codec\nFormat profile : LC\nCodec ID : 40\nDuration : 55mn 16s\nBit rate mode : Variable\nBit rate : 96.0 Kbps\nChannel(s) : 2 channels\nChannel positions : Front: L R\nSampling rate : 44.1 KHz\nCompression mode : Lossy\nDelay relative to video : 69ms\nStream size : 38.0 MiB (3%)\nLanguage : English","torrent":{"xt":"urn:btih:11f253b353d43b8493361caf1dea0e057dec77ab","amp;dn":"Haley+Cummings+-+Barely+Legal.mp4","amp;tr":["udp%3A%2F%2Ftracker.openbittorrent.com%3A80","udp%3A%2F%2Fopen.demonii.com%3A1337","udp%3A%2F%2Ftracker.coppersurfer.tk%3A6969","udp%3A%2F%2Fexodus.desync.com%3A6969"],"infoHash":"11f253b353d43b8493361caf1dea0e057dec77ab","infoHashBuffer":{"type":"Buffer","data":[17,242,83,179,83,212,59,132,147,54,28,175,29,234,14,5,125,236,119,171]},"announce":[],"urlList":[]}}